PathFileType	4	(X/Y/Z)	TVC_4_Cal_03_0_static_RCNL2025.trc
DataRate	CameraRate	NumFrames	NumMarkers	Units	OrigDataRate	OrigDataStartFrame	OrigNumFrames
100	100	10	27	mm	100	29	228
Frame#	Time	R_Shoulder			L_Shoulder			C7			J_Notch			R_Elbow			L_Elbow			R_Wrist			L_Wrist			R_Asis			L_Asis			R_Psis			L_Psis			Sacral			Thoracic			Sternum			R_Thigh_Lateral			R_Knee_Lateral			R_Shank_Lateral			R_Ankle_Lateral			R_Heel			R_Toe			L_Thigh_Lateral			L_Knee_Lateral			L_Shank_Lateral			L_Ankle_Lateral			L_Heel			L_Toe		
		X1	Y1	Z1	X2	Y2	Z2	X3	Y3	Z3	X4	Y4	Z4	X5	Y5	Z5	X6	Y6	Z6	X7	Y7	Z7	X8	Y8	Z8	X9	Y9	Z9	X10	Y10	Z10	X11	Y11	Z11	X12	Y12	Z12	X13	Y13	Z13	X14	Y14	Z14	X15	Y15	Z15	X16	Y16	Z16	X17	Y17	Z17	X18	Y18	Z18	X19	Y19	Z19	X20	Y20	Z20	X21	Y21	Z21	X22	Y22	Z22	X23	Y23	Z23	X24	Y24	Z24	X25	Y25	Z25	X26	Y26	Z26	X27	Y27	Z27
29	0.28000000	-260.948822	1342.213867	-53.705917	-221.387772	1346.003174	-415.803284	-298.523163	1390.922119	-226.559387	-148.485550	1272.316284	-234.123184	-244.088135	1128.209229	149.322647	-207.335648	1111.648804	-616.129089	-162.119308	950.498352	270.481079	-92.932514	937.096985	-680.552795	-240.267090	883.235596	-42.172791	-251.930984	866.410889	-397.166260	-385.531494	918.773315	-164.968414	-385.804840	913.937195	-256.454742	-385.668167	916.355255	-210.711578	-371.420929	1147.255859	-231.615356	-113.291405	1079.107788	-225.183472	-262.310760	541.915771	-5.735977	-284.107239	423.440918	-46.508282	-302.948242	281.195618	22.246874	-311.971802	60.466118	-60.471283	-356.831360	51.821278	-109.009140	-179.391403	44.211212	-72.773102	-248.628616	518.235413	-418.906921	-264.337616	429.580811	-378.968872	-264.017303	316.411469	-428.217438	-293.885132	60.870487	-363.511383	-341.448059	49.615337	-319.480286	-158.229843	41.989445	-344.122864
30	0.29000000	-260.845551	1342.295898	-53.804661	-221.276367	1345.853638	-415.914490	-298.342682	1391.013184	-226.679123	-148.339600	1272.279785	-234.243881	-243.976700	1128.363647	149.258102	-207.092819	1111.617432	-616.227722	-161.990128	950.574188	270.405136	-92.758389	936.999176	-680.637604	-240.180252	883.204285	-42.216057	-251.923599	866.414795	-397.149689	-385.512024	918.823303	-164.986542	-385.801666	913.941406	-256.464813	-385.656845	916.382355	-210.725677	-371.384979	1147.256226	-231.642792	-113.142265	1079.051758	-225.258621	-262.276154	541.906616	-5.765647	-284.121368	423.492523	-46.517220	-302.923676	281.269257	22.226929	-311.981659	60.584183	-60.424187	-356.845093	51.826855	-108.952766	-179.371948	44.226601	-72.727554	-248.593140	518.217468	-418.911652	-264.325287	429.598907	-378.975433	-263.963867	316.441681	-428.230591	-293.993866	60.903858	-363.478363	-341.514221	49.648495	-319.496246	-158.233521	41.991539	-344.121643
31	0.30000000	-260.649506	1342.280151	-53.951717	-221.045059	1345.807007	-415.966095	-298.145203	1390.940918	-226.826233	-147.899826	1272.377808	-234.224197	-243.818314	1128.419434	149.154556	-206.936783	1111.486328	-616.236877	-161.819374	950.734650	270.436447	-92.604027	936.649261	-680.968903	-240.086121	883.200867	-42.227287	-251.817657	866.338928	-397.183868	-385.535675	918.853821	-164.962860	-385.662476	913.983276	-256.457184	-385.599075	916.418549	-210.710022	-371.372864	1147.443115	-231.553024	-113.110008	1079.051025	-225.274078	-262.220703	541.909790	-5.707989	-284.133453	423.446991	-46.530212	-302.908264	281.244080	22.233997	-312.140472	60.633892	-60.295174	-356.851868	51.868420	-108.954346	-179.360001	44.199684	-72.742363	-248.574875	518.247498	-418.887299	-264.363007	429.608948	-378.947845	-263.875793	316.528687	-428.325958	-293.944946	60.861645	-363.486572	-341.588837	49.664886	-319.457703	-158.209229	41.981373	-344.112518
32	0.31000000	-260.557648	1342.458130	-54.014019	-220.850906	1345.770996	-416.064423	-297.964020	1390.983032	-226.857712	-147.785538	1272.336060	-234.312439	-243.621368	1128.543823	149.151123	-206.767944	1111.421753	-616.324585	-161.661392	950.840790	270.433533	-92.314445	936.765747	-680.828491	-240.130295	883.265259	-42.214787	-251.752411	866.332397	-397.139862	-385.481628	918.916138	-164.986481	-385.629822	914.050476	-256.485718	-385.555725	916.483307	-210.736099	-371.235962	1147.507324	-231.540756	-112.962791	1079.003418	-225.264526	-262.118225	542.000427	-5.636436	-284.117828	423.472900	-46.552841	-302.883850	281.235077	22.217398	-312.080872	60.695835	-60.342716	-356.843964	51.907402	-109.064598	-179.301041	44.201374	-72.782448	-248.494675	518.316101	-418.886963	-264.340057	429.581940	-378.985535	-263.845276	316.522491	-428.371735	-293.900879	60.799492	-363.513855	-341.575439	49.709270	-319.481354	-158.212173	41.991219	-344.098907
33	0.32000000	-260.372070	1342.510864	-54.143810	-220.692368	1345.719482	-416.169312	-297.781372	1391.018433	-226.975006	-147.609848	1272.299194	-234.388107	-243.497375	1128.621216	149.067841	-206.525192	1111.354370	-616.409180	-161.427719	950.948151	270.460266	-92.127422	936.721893	-680.869598	-240.101654	883.230957	-42.243351	-251.765427	866.345398	-397.143768	-385.319519	918.928284	-164.993546	-385.557465	914.113220	-256.533325	-385.438492	916.520752	-210.763435	-371.136017	1147.544922	-231.632645	-112.826157	1079.008423	-225.228867	-262.154663	541.937317	-5.736173	-284.082520	423.480225	-46.581917	-302.881348	281.296051	22.217472	-311.955933	60.582939	-60.399506	-356.849976	51.893803	-109.063637	-179.298370	44.200027	-72.772461	-248.444946	518.342529	-418.920624	-264.322815	429.580261	-379.057220	-263.690186	316.642639	-428.890106	-293.907318	60.850536	-363.533569	-341.504364	49.701874	-319.509857	-158.232574	41.990868	-344.120819
34	0.33000000	-260.187439	1342.536011	-54.167442	-220.559875	1345.671509	-416.200806	-297.564270	1391.036499	-227.143906	-147.387283	1272.284546	-234.452652	-243.270920	1128.725098	149.021866	-206.366608	1111.269287	-616.424561	-161.279564	951.148163	270.460884	-91.923038	936.634857	-680.891083	-240.049744	883.272095	-42.245899	-251.661087	866.391724	-397.296906	-385.275513	918.966797	-165.041214	-385.425873	914.109802	-256.514954	-385.350693	916.538300	-210.778084	-371.056183	1147.534424	-231.680084	-112.771011	1078.932007	-225.318253	-262.226257	541.869629	-5.727275	-284.123627	423.459015	-46.530743	-302.871826	281.295349	22.212048	-311.982483	60.566387	-60.397064	-356.740631	51.878231	-109.047089	-179.333878	44.213810	-72.743309	-248.483749	518.303162	-418.937958	-264.338928	429.566223	-379.026947	-263.938049	316.519501	-428.500153	-293.868591	60.854340	-363.537964	-341.483490	49.670216	-319.548767	-158.160599	42.035469	-344.169159
35	0.34000000	-260.011597	1342.622925	-54.283199	-220.386734	1345.590332	-416.324768	-297.292328	1390.979980	-227.281281	-147.341232	1272.181152	-234.524643	-243.107040	1128.856567	149.019516	-206.237106	1111.127563	-616.481995	-161.166183	951.312653	270.467331	-91.697628	936.544556	-680.852509	-239.987885	883.274353	-42.300953	-251.604935	866.408447	-397.173340	-385.203674	918.957642	-165.079590	-385.404633	914.154114	-256.532593	-385.304153	916.555878	-210.806091	-370.635132	1147.411133	-231.978622	-112.659164	1078.907471	-225.296631	-262.369171	541.846924	-5.775136	-284.106689	423.439514	-46.520157	-302.903717	281.114777	22.204424	-311.989807	60.564659	-60.429386	-356.763885	51.756031	-109.051437	-179.331726	44.219887	-72.804329	-248.518280	518.276245	-418.918671	-264.417572	429.601807	-379.029602	-264.036316	316.524048	-428.324341	-293.963104	60.781418	-363.539612	-341.507080	49.591419	-319.517273	-158.225891	41.966763	-344.137085
36	0.35000000	-259.817688	1342.588989	-54.421215	-220.261749	1345.498779	-416.431458	-297.126709	1391.009399	-227.290070	-147.193909	1272.061890	-234.601089	-243.077560	1128.956909	148.996155	-206.066940	1111.048462	-616.522156	-161.091858	951.531036	270.550598	-91.517651	936.395325	-680.871124	-239.907791	883.193481	-42.278938	-251.538651	866.441345	-397.226196	-385.133026	918.923279	-165.028091	-385.336243	914.158203	-256.573669	-385.234634	916.540741	-210.800880	-370.513855	1147.366943	-232.044327	-112.490723	1078.851685	-225.344711	-262.476257	541.857544	-5.789123	-284.139008	423.466522	-46.526787	-302.951294	281.156555	22.250288	-312.200806	60.712440	-60.313030	-356.785645	51.814621	-108.985832	-179.313446	44.188625	-72.763252	-248.568329	518.228455	-418.948792	-264.443512	429.594299	-379.008484	-264.143860	316.280762	-428.191284	-293.994415	60.773922	-363.461761	-341.538208	49.590374	-319.484741	-158.249268	41.977295	-344.095184
37	0.36000000	-259.624847	1342.614746	-54.494198	-220.100067	1345.383057	-416.452301	-296.954285	1390.976562	-227.390976	-147.101700	1272.050293	-234.702225	-242.945648	1129.129395	148.999527	-205.900009	1110.922241	-616.548462	-160.955193	951.660797	270.677208	-91.266922	936.327637	-680.859802	-239.849289	883.245178	-42.304218	-251.540619	866.395447	-397.192261	-384.979950	918.991150	-164.964844	-385.260284	914.116028	-256.526215	-385.120117	916.553589	-210.745529	-370.377777	1147.401489	-232.068634	-112.402527	1078.828003	-225.422211	-262.560425	541.827759	-5.771110	-284.128815	423.445587	-46.493290	-302.978638	281.221375	22.283897	-312.135132	60.497643	-60.432060	-356.778625	51.793861	-109.013039	-179.365875	44.148159	-72.804955	-248.593521	518.202698	-418.931915	-264.472839	429.588013	-379.018219	-263.927185	316.416138	-428.796753	-293.975769	60.747452	-363.458038	-341.479553	49.535622	-319.442169	-158.161423	41.952084	-344.078125
38	0.37000000	-259.510986	1342.482910	-54.574661	-219.955688	1345.337524	-416.567596	-296.644989	1391.002319	-227.483780	-146.896225	1272.065063	-234.768951	-242.702286	1129.207764	148.940933	-205.693436	1110.850830	-616.555481	-160.847107	951.850159	270.775612	-91.001869	936.179901	-680.705536	-239.868744	883.267334	-42.277298	-251.456604	866.351257	-397.111816	-384.983704	918.979736	-165.012665	-385.177155	914.175781	-256.572510	-385.080429	916.577759	-210.792587	-370.169342	1147.404785	-232.130356	-112.314468	1078.767700	-225.416428	-262.615875	541.772461	-5.787398	-284.140045	423.446625	-46.482105	-302.949280	281.136566	22.229918	-312.114502	60.405106	-60.405567	-356.798431	51.793324	-108.991249	-179.320526	44.232468	-72.685852	-248.599838	518.204956	-418.951447	-264.498413	429.613861	-379.038605	-264.149872	316.373505	-428.450378	-294.038879	60.823208	-363.455872	-341.481537	49.583405	-319.427521	-158.165863	42.019638	-344.045624
